<svg height="511pt" viewBox="-71 1 511 511.99998" width="511pt" xmlns="http://www.w3.org/2000/svg"><path d="m108.289062 287.4375h143.71875c49.609376 0 89.824219 40.21875 89.824219 89.824219v134.738281h-323.367187v-134.738281c0-49.605469 40.214844-89.824219 89.824218-89.824219zm0 0" fill="#ed1c24"/><path d="m135.238281 386.246094-44.914062-53.894532 44.914062-21.960937zm0 0" fill="#c1272d"/><path d="m225.0625 386.246094 44.910156-53.894532-44.910156-21.960937zm0 0" fill="#c1272d"/><path d="m18.464844 476.070312h62.875v35.929688h-62.875zm0 0" fill="#f2c09a"/><path d="m.5 440.140625h80.84375v35.929687h-80.84375zm0 0" fill="#c1272d"/><path d="m278.957031 476.070312h62.875v35.929688h-62.875zm0 0" fill="#f2c09a"/><path d="m278.957031 440.140625h80.839844v35.929687h-80.839844zm0 0" fill="#c1272d"/><path d="m225.0625 287.4375v70.871094c-24.210938 24.828125-63.960938 25.332031-88.789062 1.121094-.195313-.191407-.394532-.386719-.585938-.582032-.175781-.15625-.328125-.335937-.449219-.535156v-70.875zm0 0" fill="#f2c09a"/><path d="m225.0625 310.253906v27.039063c-9.074219 2.660156-18.480469 4.019531-27.9375 4.039062h-33.953125c-9.457031-.019531-18.863281-1.378906-27.933594-4.039062v-27.039063c9.058594 2.726563 18.46875 4.121094 27.933594 4.132813h33.953125c9.464844-.011719 18.875-1.40625 27.9375-4.132813zm0 0" fill="#cc9c72"/><path d="m225.0625 512h-89.824219v-153.601562c11.816407 12.085937 28.007813 18.886718 44.910157 18.863281 16.902343.023437 33.097656-6.777344 44.914062-18.863281zm0 0" fill="#fbb03b"/><path d="m72.359375 386.246094h17.964844v125.753906h-17.964844zm0 0" fill="#d11920"/><path d="m269.972656 386.246094h17.964844v125.753906h-17.964844zm0 0" fill="#d11920"/><path d="m72.359375 197.613281h-17.964844c-14.882812 0-26.949219-12.0625-26.949219-26.945312 0-14.882813 12.066407-26.949219 26.949219-26.949219h17.964844zm0 0" fill="#cc9c72"/><path d="m287.9375 143.71875h17.964844c14.882812 0 26.949218 12.066406 26.949218 26.949219 0 14.882812-12.066406 26.945312-26.949218 26.945312h-17.964844zm0 0" fill="#cc9c72"/><path d="m296.921875 73.296875v141.292969c-.066406 55.089844-44.707031 99.730468-99.796875 99.796875h-33.953125c-29.136719-.035157-56.816406-12.757813-75.8125-34.851563-7.699219-8.972656-13.726563-19.257812-17.785156-30.363281-4.09375-11.070313-6.191407-22.777344-6.195313-34.582031v-141.292969c-.023437-40.460937 32.761719-73.2773438 73.222656-73.296875h.074219 86.949219c40.460938-.0195312 73.277344 32.765625 73.296875 73.226562zm0 0" fill="#f2c09a"/><path d="m296.921875 73.296875c0-40.480469-32.816406-73.296875-73.296875-73.296875h-86.949219c-40.484375 0-73.296875 32.816406-73.296875 73.296875v43.476563h233.542969zm0 0" fill="#333"/><path d="m180.148438 62.878906c14.882812 0 26.949218 12.0625 26.949218 26.945313v26.949219h-53.894531v-26.949219c0-14.882813 12.0625-26.945313 26.945313-26.945313zm0 0" fill="#f2c09a"/><g fill="#a67c52"><path d="m171.167969 215.578125h8.980469c9.921874 0 17.964843-8.042969 17.964843-17.964844v-35.929687h44.914063c4.960937 0 8.980468-4.019532 8.980468-8.980469s-4.019531-8.984375-8.980468-8.984375h-44.914063c-9.921875 0-17.964843 8.042969-17.964843 17.964844v35.929687h-8.980469c-4.960938 0-8.984375 4.023438-8.984375 8.984375 0 4.960938 4.023437 8.980469 8.984375 8.980469zm0 0"/><path d="m144.21875 179.648438c0 4.960937-4.019531 8.984374-8.980469 8.984374-4.960937 0-8.984375-4.023437-8.984375-8.984374 0-4.960938 4.023438-8.980469 8.984375-8.980469 4.960938 0 8.980469 4.019531 8.980469 8.980469zm0 0"/><path d="m234.042969 179.648438c0 4.960937-4.019531 8.984374-8.980469 8.984374s-8.984375-4.023437-8.984375-8.984374c0-4.960938 4.023437-8.980469 8.984375-8.980469s8.980469 4.019531 8.980469 8.980469zm0 0"/><path d="m117.273438 161.683594h35.929687c4.960937 0 8.980469-4.019532 8.980469-8.980469s-4.019532-8.984375-8.980469-8.984375h-35.929687c-4.960938 0-8.984376 4.023438-8.984376 8.984375s4.023438 8.980469 8.984376 8.980469zm0 0"/><path d="m189.132812 287.4375h-17.964843c-4.960938 0-8.984375-4.019531-8.984375-8.980469 0-4.960937 4.023437-8.984375 8.984375-8.984375h17.964843c4.960938 0 8.980469 4.023438 8.980469 8.984375 0 4.960938-4.019531 8.980469-8.980469 8.980469zm0 0"/></g><path d="m368.78125 116.773438c0 4.960937-4.023438 8.980468-8.984375 8.980468h-296.417969v-17.964844h296.417969c4.960937 0 8.984375 4.023438 8.984375 8.984376zm0 0" fill="#4d4d4d"/></svg>