<svg height="512pt" viewBox="-82 0 512 512.00001" width="512pt" xmlns="http://www.w3.org/2000/svg"><path d="m69.421875 208.269531h-17.355469c-14.378906 0-26.03125-11.652343-26.03125-26.03125 0-14.378906 11.652344-26.035156 26.03125-26.035156h17.355469zm0 0" fill="#cc9c72"/><path d="m277.695312 156.203125h17.355469c14.378907 0 26.035157 11.65625 26.035157 26.035156 0 14.378907-11.65625 26.03125-26.035157 26.03125h-17.355469zm0 0" fill="#cc9c72"/><path d="m104.136719 295.050781h138.847656c47.925781 0 86.777344 38.851563 86.777344 86.78125v130.167969h-312.40625v-130.167969c0-47.929687 38.851562-86.78125 86.78125-86.78125zm0 0" fill="#8cc63f"/><path d="m164.882812 373.152344h17.355469v138.847656h-17.355469zm0 0" fill="#78aa36"/><path d="m234.304688 310.273438-60.746094 71.558593-60.746094-71.558593zm0 0" fill="#f2c09a"/><g fill="#009245"><path d="m112.8125 310.273438v62.878906l60.746094 8.679687zm0 0"/><path d="m234.304688 310.273438v62.878906l-60.746094 8.679687zm0 0"/><path d="m199.59375 477.289062h17.355469v17.355469h-17.355469zm0 0"/><path d="m199.59375 442.578125h17.355469v17.355469h-17.355469zm0 0"/><path d="m199.59375 407.863281h17.355469v17.355469h-17.355469zm0 0"/></g><path d="m269.015625 477.289062h60.746094v34.710938h-60.746094zm0 0" fill="#f2c09a"/><path d="m17.355469 477.289062h60.746093v34.710938h-60.746093zm0 0" fill="#f2c09a"/><path d="m269.015625 442.578125h78.101563v34.710937h-78.101563zm0 0" fill="#009245"/><path d="m0 442.578125h78.101562v34.710937h-78.101562zm0 0" fill="#009245"/><path d="m69.421875 390.507812h17.359375v121.492188h-17.359375zm0 0" fill="#78aa36"/><path d="m260.339844 390.507812h17.355468v121.492188h-17.355468zm0 0" fill="#78aa36"/><path d="m189.960938 321.085938h-32.804688c-15.324219-.046876-30.414062-3.753907-44.011719-10.8125h-.332031l30.277344 35.664062c4.652344.742188 9.355468 1.136719 14.066406 1.179688h32.804688c4.710937-.042969 9.414062-.4375 14.066406-1.179688l30.277344-35.664062h-.328126c-13.601562 7.058593-28.691406 10.765624-44.015624 10.8125zm0 0" fill="#cc9c72"/><path d="m286.371094 86.78125v137.890625c0 23.015625-8.230469 45.269531-23.210938 62.742187-18.3125 21.371094-45.054687 33.671876-73.199218 33.671876h-32.804688c-28.144531 0-54.882812-12.300782-73.195312-33.671876-14.980469-17.472656-23.214844-39.726562-23.214844-62.742187v-137.890625zm0 0" fill="#f2c09a"/><path d="m164.882812 225.628906h8.675782c9.585937 0 17.355468-7.773437 17.355468-17.359375v-34.710937h43.390626c4.792968 0 8.679687-3.882813 8.679687-8.675782 0-4.792968-3.886719-8.679687-8.679687-8.679687h-43.390626c-9.585937 0-17.355468 7.769531-17.355468 17.355469v34.710937h-8.675782c-4.792968 0-8.679687 3.886719-8.679687 8.679688s3.886719 8.679687 8.679687 8.679687zm0 0" fill="#a67c52"/><path d="m138.847656 190.914062c0 4.792969-3.886718 8.679688-8.679687 8.679688s-8.675781-3.886719-8.675781-8.679688c0-4.792968 3.882812-8.675781 8.675781-8.675781s8.679687 3.882813 8.679687 8.675781zm0 0" fill="#a67c52"/><path d="m225.625 190.914062c0 4.792969-3.882812 8.679688-8.675781 8.679688s-8.679688-3.886719-8.679688-8.679688c0-4.792968 3.886719-8.675781 8.679688-8.675781s8.675781 3.882813 8.675781 8.675781zm0 0" fill="#a67c52"/><path d="m112.8125 173.558594h34.710938c4.792968 0 8.679687-3.882813 8.679687-8.675782 0-4.792968-3.886719-8.679687-8.679687-8.679687h-34.710938c-4.792969 0-8.675781 3.886719-8.675781 8.679687 0 4.792969 3.882812 8.675782 8.675781 8.675782zm0 0" fill="#a67c52"/><path d="m173.558594 295.050781h-26.035156c-19.167969 0-34.710938-15.542969-34.710938-34.710937 0-4.792969 3.886719-8.679688 8.679688-8.679688 4.792968 0 8.675781 3.886719 8.675781 8.679688 0 9.585937 7.773437 17.355468 17.355469 17.355468h26.035156c4.792968 0 8.679687 3.886719 8.679687 8.675782 0 4.792968-3.886719 8.679687-8.679687 8.679687zm0 0" fill="#a67c52"/><path d="m286.371094 78.101562v78.101563l-34.710938-26.035156v-52.066407zm0 0" fill="#8c6239"/><path d="m60.746094 78.101562v78.101563l34.710937-26.035156v-52.066407zm0 0" fill="#8c6239"/><path d="m60.746094 86.78125v-43.390625c0-23.964844 19.425781-43.390625 43.390625-43.390625h138.847656c23.960937 0 43.386719 19.425781 43.386719 43.390625v43.390625zm0 0" fill="#754c24"/></svg>