<svg height="512pt" viewBox="-102 0 512 512.00029" width="512pt" xmlns="http://www.w3.org/2000/svg"><path d="m85.753906 297.621094h137.203125c47.359375 0 85.75 38.390625 85.75 85.75v128.628906h-308.707031v-128.628906c0-47.359375 38.394531-85.75 85.753906-85.75zm0 0" fill="#f8cf26"/><path d="m0 443.398438h60.027344v68.601562h-60.027344zm0 0" fill="#f2c09a"/><path d="m248.683594 443.398438h60.023437v68.601562h-60.023437zm0 0" fill="#f2c09a"/><g fill="#e4be23"><path d="m51.453125 391.945312h17.148437v120.054688h-17.148437zm0 0"/><path d="m240.105469 391.945312h17.152343v120.054688h-17.152343zm0 0"/><path d="m145.777344 374.796875h17.152344v68.601563h-17.152344zm0 0"/></g><path d="m214.378906 312.660156-60.023437 70.710938-60.027344-70.710938zm0 0" fill="#f2c09a"/><path d="m94.328125 312.660156v62.136719l60.027344 8.574219zm0 0" fill="#a67c52"/><path d="m214.378906 312.660156v62.136719l-60.023437 8.574219zm0 0" fill="#a67c52"/><path d="m170.5625 323.34375h-32.414062c-15.144532-.042969-30.054688-3.707031-43.496094-10.683594h-.324219l29.917969 35.246094c4.597656.734375 9.246094 1.121094 13.902344 1.164062h32.414062c4.65625-.042968 9.300781-.429687 13.898438-1.164062l29.917968-35.246094h-.324218c-13.4375 6.976563-28.351563 10.640625-43.492188 10.683594zm0 0" fill="#cc9c72"/><path d="m180.078125 409.097656h17.152344v17.148438h-17.152344zm0 0" fill="#5e95ae"/><path d="m257.257812 160.417969h17.148438c14.207031 0 25.726562 11.515625 25.726562 25.722656 0 14.210937-11.519531 25.726563-25.726562 25.726563h-17.148438zm0 0" fill="#cc9c72"/><path d="m51.453125 211.867188h-17.152344c-14.207031 0-25.726562-11.515626-25.726562-25.726563 0-14.207031 11.519531-25.722656 25.726562-25.722656h17.152344zm0 0" fill="#cc9c72"/><path d="m170.5625 323.34375h-32.414062c-27.8125.003906-54.238282-12.152344-72.332032-33.269531-14.804687-17.265625-22.941406-39.257813-22.941406-62v-84.808594c0-61.566406 49.910156-111.476563 111.480469-111.476563 61.566406 0 111.476562 49.910157 111.476562 111.476563v84.808594c0 22.742187-8.136719 44.734375-22.9375 62-18.097656 21.117187-44.519531 33.273437-72.332031 33.269531zm0 0" fill="#f2c09a"/><path d="m265.832031 146.097656v28.554688l-18.867187 25.210937c-1.628906 2.144531-4.164063 3.410157-6.859375 3.429688h-171.503907c-2.695312-.019531-5.226562-1.285157-6.859374-3.429688l-18.867188-25.210937v-28.554688l30.015625 40.042969h162.929687zm0 0" fill="#8c6239"/><path d="m154.355469 40.363281c-2.273438 0-4.457031-.902343-6.0625-2.511719l-25.726563-25.726562 12.125-12.125 19.664063 19.664062 19.660156-19.664062 12.128906 12.125-25.726562 25.726562c-1.609375 1.609376-3.789063 2.511719-6.0625 2.511719zm0 0" fill="#534741"/><path d="m180.078125 297.621094h-51.449219c-4.734375 0-8.574218-3.839844-8.574218-8.578125 0-4.734375 3.839843-8.574219 8.574218-8.574219h51.449219c4.738281 0 8.578125 3.839844 8.578125 8.574219 0 4.738281-3.839844 8.578125-8.578125 8.578125zm0 0" fill="#a67c52"/><path d="m42.875 142.847656c34.132812-1.019531 66.488281-15.457031 90.042969-40.183594 25.671875 26.835938 61.484375 41.582032 98.613281 40.601563 11.480469-.003906 22.921875-1.316406 34.105469-3.917969-1.691407-61.503906-52.917969-109.988281-114.417969-108.300781-60.484375 1.660156-108.582031 51.296875-108.34375 111.800781zm0 0" fill="#534741"/><path d="m137.203125 194.71875c0 18.941406-15.355469 34.300781-34.300781 34.300781-18.941406 0-34.300782-15.359375-34.300782-34.300781 0-18.945312 15.359376-34.300781 34.300782-34.300781 18.945312 0 34.300781 15.355469 34.300781 34.300781zm0 0" fill="#e6e6e6"/><path d="m240.105469 194.71875c0 18.941406-15.355469 34.300781-34.300781 34.300781-18.941407 0-34.300782-15.359375-34.300782-34.300781 0-18.945312 15.359375-34.300781 34.300782-34.300781 18.945312 0 34.300781 15.355469 34.300781 34.300781zm0 0" fill="#e6e6e6"/><path d="m120.054688 194.71875c0 4.734375-3.839844 8.574219-8.578126 8.574219-4.734374 0-8.574218-3.839844-8.574218-8.574219 0-4.738281 3.839844-8.578125 8.574218-8.578125 4.738282 0 8.578126 3.839844 8.578126 8.578125zm0 0" fill="#a67c52"/><path d="m205.804688 194.71875c0 4.734375-3.839844 8.574219-8.574219 8.574219s-8.574219-3.839844-8.574219-8.574219c0-4.738281 3.839844-8.578125 8.574219-8.578125s8.574219 3.839844 8.574219 8.578125zm0 0" fill="#a67c52"/></svg>