<svg height="512" viewBox="0 0 512 512" width="512" xmlns="http://www.w3.org/2000/svg"><g id="Flat"><path d="m328 424-144-40v-360l144 40z" fill="#d6d6d4"/><path d="m184 24v160l15.964 12.771a62.147 62.147 0 0 0 53.9 11.763 62.151 62.151 0 0 1 59.02 16.348l15.116 15.118v-176z" fill="#3086cd"/><path d="m248 306.523h16v98.955h-16z" fill="#bfbfbd" transform="matrix(.243 -.97 .97 .243 -151.46 518.014)"/><path d="m248 274.523h16v98.955h-16z" fill="#bfbfbd" transform="matrix(.243 -.97 .97 .243 -120.415 493.775)"/><path d="m284 288.631h16v24.739h-16z" fill="#bfbfbd" transform="matrix(.243 -.97 .97 .243 -70.833 511.278)"/><path d="m228 258.138h16v57.723h-16z" fill="#bfbfbd" transform="matrix(.243 -.97 .97 .243 -99.669 446.346)"/><path d="m248 210.523h16v98.955h-16z" fill="#bfbfbd" transform="matrix(.243 -.97 .97 .243 -58.326 445.297)"/><path d="m184 384-120 40v-360l120-40z" fill="#e0e0de"/><path d="m448 384-120 40v-360l120-40z" fill="#e0e0de"/><path d="m184 184 15.964 12.771a62.147 62.147 0 0 0 53.9 11.763 62.151 62.151 0 0 1 59.02 16.348l15.116 15.118v-56l-32-48-24 24-40-56-48 24z" fill="#5ac6d4"/><g fill="#bfbfbd"><path d="m350.053 348h75.895v16h-75.895z" transform="matrix(.949 -.316 .316 .949 -92.679 140.993)"/><path d="m350.053 316h75.895v16h-75.895z" transform="matrix(.949 -.316 .316 .949 -82.558 139.35)"/><path d="m350.053 284h75.895v16h-75.895z" transform="matrix(.949 -.316 .316 .949 -72.437 137.708)"/><path d="m350.053 252h75.895v16h-75.895z" transform="matrix(.949 -.316 .316 .949 -62.316 136.065)"/><path d="m86.053 348h75.895v16h-75.895z" transform="matrix(.949 -.316 .316 .949 -106.231 57.494)"/><path d="m86.053 316h75.895v16h-75.895z" transform="matrix(.949 -.316 .316 .949 -96.11 55.852)"/><path d="m86.053 284h75.895v16h-75.895z" transform="matrix(.949 -.316 .316 .949 -85.989 54.209)"/><path d="m86.053 252h75.895v16h-75.895z" transform="matrix(.949 -.316 .316 .949 -75.868 52.566)"/></g><path d="m408 464-.621-.932a69 69 0 0 1 8.621-87.068l-36-48a20 20 0 0 1 4-28 20 20 0 0 1 28 4l36 48v-104l20.58 12.348a40 40 0 0 1 19.42 34.3v193.352h-80z" fill="#fec9a3"/><path d="m104 464 .621-.932a69 69 0 0 0 -8.621-87.068l36-48a20 20 0 0 0 -4-28 20 20 0 0 0 -28 4l-36 48v-104l-20.58 12.348a40 40 0 0 0 -19.42 34.3v193.352h80z" fill="#fec9a3"/><path d="m64 240 13.669-2.734a76.075 76.075 0 0 0 43.521-25.894 76.07 76.07 0 0 1 58.44-27.372h4.37v-160l-120 40z" fill="#348fd9"/><path d="m64 160 32-48 32 24 24-32 32 24v56h-4.37a76.07 76.07 0 0 0 -58.44 27.372 76.075 76.075 0 0 1 -43.521 25.894l-13.669 2.734z" fill="#60d1e0"/><path d="m94.656 180.438-13.312-8.876 16-24a8 8 0 0 1 11.094-2.218l24 16-8.876 13.312-17.343-11.562z" fill="#3fb5c4"/><path d="m228.8 166.4-9.6-12.8 32-24a8 8 0 0 1 11.456 1.962l16 24-13.312 8.876-11.31-16.964z" fill="#3fb5c4"/><path d="m328 240 13.669-2.734a76.075 76.075 0 0 0 43.521-25.894 76.07 76.07 0 0 1 58.44-27.372h4.37v-160l-120 40z" fill="#348fd9"/><path d="m328 184 40-48 32 16 24-48 24 24v56h-4.37a76.07 76.07 0 0 0 -58.44 27.372 76.075 76.075 0 0 1 -43.521 25.894l-13.669 2.734z" fill="#60d1e0"/><path d="m386.343 213.657-17.1-17.1-10.587 15.881-13.312-8.876 16-24a8 8 0 0 1 12.313-1.219l24 24z" fill="#3fb5c4"/><path d="m32 72h-16a56.945 56.945 0 0 1 45.654-55.689l.777-.156 3.138 15.69-.776.155a40.9 40.9 0 0 0 -32.793 40z" fill="#a0dde5"/><circle cx="272" cy="96" fill="#f35244" r="16"/></g></svg>