<svg height="512" viewBox="0 0 512 512" width="512" xmlns="http://www.w3.org/2000/svg"><g id="Flat"><path d="m72 24h304v432h-304z" fill="#2b78b8"/><path d="m104 24h304v432h-304z" fill="#348fd9"/><path d="m440 456h-304v-360l72-72h232z" fill="#4db7e5"/><path d="m136 96h72v-72z" fill="#79c6e8"/><path d="m99.378 389.912-3.378-5.912 42.167-48.191a22.454 22.454 0 0 0 -1.021-30.663 22.454 22.454 0 0 0 -32.926 1.264l-32.22 37.59v-96l-17.044 8.522a56 56 0 0 0 -30.956 50.088v181.39h72a93.34 93.34 0 0 0 3.378-98.088z" fill="#fec9a3"/><path d="m136 144 304-64v128l-304 72z" fill="#ad4275"/><path d="m440 128-48 16v32h-32v-40h-48v72h-32v-40h-48v32l-48 8v-40l-48 16v96l304-72z" fill="#d3669a"/><path d="m248 144h16v24h-16z" fill="#c7568c"/><path d="m224 192h16v32h-16z" fill="#c7568c"/><path d="m176 208h16v32h-16z" fill="#c7568c"/><path d="m352 176h16v24h-16z" fill="#c7568c"/><g fill="#3b9dc7"><path d="m200 312h72v16h-72z"/><path d="m168 312h16v16h-16z"/><path d="m240 408h32v16h-32z"/><path d="m168 408h56v16h-56z"/><path d="m168 344h104v16h-104z"/><path d="m168 376h104v16h-104z"/><path d="m304 312h104v16h-104z"/><path d="m344 376h64v16h-64z"/><path d="m304 376h24v16h-24z"/><path d="m304 344h104v16h-104z"/><path d="m304 408h104v16h-104z"/><path d="m304 264h16v16h-16z"/><path d="m336 264h64v16h-64z"/><path d="m317.493 57.871h18.696v16h-18.696z" transform="matrix(.98 -.2 .2 .98 -6.571 66.767)"/><path d="m242.386 68.928h60.668v16h-60.668z" transform="matrix(.98 -.2 .2 .98 -9.88 56.156)"/></g><path d="m412.622 389.912 3.378-5.912-42.167-48.191a22.454 22.454 0 0 1 1.021-30.663 22.454 22.454 0 0 1 32.926 1.264l32.22 37.59v-96l17.044 8.522a56 56 0 0 1 30.956 50.088v181.39h-72a93.34 93.34 0 0 1 -3.378-98.088z" fill="#fec9a3"/></g></svg>