<?xml version="1.0" encoding="iso-8859-1"?>
<!-- Generator: Adobe Illustrator 19.0.0, SVG Export Plug-In . SVG Version: 6.00 Build 0)  -->
<svg version="1.1" id="Capa_1" xmlns="http://www.w3.org/2000/svg" xmlns:xlink="http://www.w3.org/1999/xlink" x="0px" y="0px"
	 viewBox="0 0 512 512" style="enable-background:new 0 0 512 512;" xml:space="preserve">
<path style="fill:#ECF0F0;" d="M440,0H72c-4.418,0-8,3.582-8,8v496c0,4.418,3.582,8,8,8h368c4.418,0,8-3.582,8-8V8
	C448,3.582,444.418,0,440,0z"/>
<path style="fill:#FFD74A;" d="M440,0H72c-4.418,0-8,3.582-8,8v304c0,4.418,3.582,8,8,8h368c4.418,0,8-3.582,8-8V8
	C448,3.582,444.418,0,440,0z"/>
<g>
	<polygon style="fill:#F37121;" points="255.883,311.412 64,119.529 64,232.11 255.82,311.564 	"/>
	<polygon style="fill:#F37121;" points="256.333,311.667 448,311.667 448,232.11 256.333,311.501 	"/>
	<path style="fill:#F37121;" d="M256.333,311.195L448,119.528V8c0-4.418-3.582-8-8-8h-55.126L256.333,310.324V311.195z"/>
	<polygon style="fill:#F37121;" points="256.333,310.324 256.333,0 127.126,0 256,311.129 	"/>
</g>
<g>
	<path style="fill:#ED3124;" d="M452.293,360l48.913-41.926c2.542-2.179,3.459-5.71,2.297-8.85c-1.161-3.14-4.155-5.225-7.503-5.225
		H368c-4.418,0-8,3.582-8,8v96c0,4.418,3.582,8,8,8h128c3.348,0,6.342-2.085,7.503-5.225c1.162-3.14,0.245-6.671-2.297-8.85
		L452.293,360z"/>
	<path style="fill:#ED3124;" d="M144,304H16c-3.348,0-6.342,2.085-7.503,5.225c-1.162,3.14-0.245,6.671,2.297,8.85L59.707,360
		l-48.913,41.926c-2.542,2.179-3.459,5.71-2.297,8.85C9.658,413.915,12.652,416,16,416h128c4.418,0,8-3.582,8-8v-96
		C152,307.582,148.418,304,144,304z"/>
</g>
<g>
	<path style="fill:#961C1E;" d="M144,352h-32c-2.95,0-5.661,1.624-7.054,4.226c-1.392,2.601-1.239,5.757,0.397,8.212l32,48
		c1.512,2.268,4.032,3.563,6.657,3.563c0.771,0,1.551-0.112,2.317-0.345c3.374-1.021,5.682-4.131,5.682-7.656v-48
		C152,355.582,148.418,352,144,352z"/>
	<path style="fill:#961C1E;" d="M407.054,356.226C405.661,353.624,402.95,352,400,352h-32c-4.418,0-8,3.582-8,8v48
		c0,3.525,2.308,6.635,5.682,7.656c0.767,0.232,1.547,0.345,2.317,0.345c2.625,0,5.146-1.296,6.657-3.563l32-48
		C408.293,361.982,408.445,358.826,407.054,356.226z"/>
</g>
<path style="fill:#ED3124;" d="M400,256H112c-4.418,0-8,3.582-8,8v96c0,4.418,3.582,8,8,8h288c4.418,0,8-3.582,8-8v-96
	C408,259.582,404.418,256,400,256z"/>
<g>
	<path style="fill:#B1C2C2;" d="M272,408h-72c-4.418,0-8-3.582-8-8s3.582-8,8-8h72c4.418,0,8,3.582,8,8S276.418,408,272,408z"/>
	<path style="fill:#B1C2C2;" d="M312,408h-16c-4.418,0-8-3.582-8-8s3.582-8,8-8h16c4.418,0,8,3.582,8,8S316.418,408,312,408z"/>
	<path style="fill:#B1C2C2;" d="M216,440h-16c-4.418,0-8-3.582-8-8s3.582-8,8-8h16c4.418,0,8,3.582,8,8S220.418,440,216,440z"/>
	<path style="fill:#B1C2C2;" d="M312,440h-72c-4.418,0-8-3.582-8-8s3.582-8,8-8h72c4.418,0,8,3.582,8,8S316.418,440,312,440z"/>
	<path style="fill:#B1C2C2;" d="M216,472h-48c-4.418,0-8-3.582-8-8s3.582-8,8-8h48c4.418,0,8,3.582,8,8S220.418,472,216,472z"/>
	<path style="fill:#B1C2C2;" d="M304,472h-64c-4.418,0-8-3.582-8-8s3.582-8,8-8h64c4.418,0,8,3.582,8,8S308.418,472,304,472z"/>
	<path style="fill:#B1C2C2;" d="M344,472h-16c-4.418,0-8-3.582-8-8s3.582-8,8-8h16c4.418,0,8,3.582,8,8S348.418,472,344,472z"/>
</g>
<g>
	<path style="fill:#58BEC7;" d="M317.341,76.069h-41.048L263.608,37.03c-1.071-3.297-4.143-5.528-7.608-5.528
		s-6.537,2.231-7.608,5.528l-12.685,39.039h-41.048c-3.466,0-6.537,2.231-7.608,5.528c-1.071,3.296,0.103,6.906,2.906,8.943
		l33.208,24.128l-12.685,39.039c-1.071,3.296,0.103,6.906,2.906,8.943c2.803,2.037,6.602,2.037,9.404,0L256,138.524l33.209,24.127
		c2.99,2.173,7.201,1.975,9.979-0.461c2.377-2.085,3.309-5.475,2.332-8.483l-12.685-39.039l33.208-24.128
		c2.804-2.037,3.978-5.647,2.906-8.943C323.878,78.301,320.807,76.069,317.341,76.069z"/>
	<path style="fill:#58BEC7;" d="M423.852,166.435l-26.24-9.992l1.396-28.045c0.172-3.461-1.904-6.641-5.143-7.874
		c-3.24-1.233-6.904-0.24-9.078,2.459l-17.613,21.868l-26.24-9.994c-3.24-1.233-6.904-0.24-9.078,2.458
		c-2.174,2.699-2.362,6.492-0.468,9.394l15.356,23.509l-17.613,21.869c-2.174,2.699-2.362,6.491-0.468,9.393
		c1.896,2.901,5.443,4.254,8.789,3.347l27.103-7.339l15.356,23.508c1.985,3.04,5.891,4.372,9.322,3.182
		c3.048-1.057,5.206-3.938,5.366-7.16l1.395-28.044l27.104-7.34c3.346-0.905,5.728-3.862,5.899-7.324
		S427.091,167.668,423.852,166.435z"/>
	<path style="fill:#58BEC7;" d="M165.257,174.332l15.356-23.509c1.895-2.901,1.706-6.693-0.468-9.393s-5.841-3.691-9.077-2.459
		l-26.241,9.993l-17.613-21.868c-2.175-2.698-5.838-3.691-9.078-2.458c-3.238,1.233-5.314,4.413-5.143,7.874l1.396,28.045
		l-26.24,9.992c-3.239,1.233-5.315,4.412-5.144,7.874s2.554,6.419,5.899,7.324l27.104,7.34l1.395,28.044
		c0.16,3.221,2.318,6.103,5.366,7.16c3.431,1.19,7.337-0.143,9.323-3.182l15.355-23.509l27.103,7.339
		c3.345,0.911,6.894-0.445,8.789-3.347c1.895-2.901,1.706-6.694-0.468-9.394L165.257,174.332z"/>
</g>
<g>
	<path style="fill:#ECF0F0;" d="M208,280h-32c-4.418,0-8,3.582-8,8v48c0,4.418,3.582,8,8,8s8-3.582,8-8v-16h8c4.418,0,8-3.582,8-8
		s-3.582-8-8-8h-8v-8h24c4.418,0,8-3.582,8-8S212.418,280,208,280z"/>
	<path style="fill:#ECF0F0;" d="M263.155,332.422l-24-48C237.8,281.712,235.03,280,232,280s-5.8,1.712-7.155,4.422l-24,48
		c-1.976,3.952-0.374,8.758,3.577,10.733c3.953,1.976,8.757,0.375,10.733-3.577L220.944,328h22.111l5.789,11.578
		c2.069,4.138,7.396,5.663,11.343,3.238C263.677,340.672,264.987,336.086,263.155,332.422z M228.944,312l3.056-6.111l3.056,6.111
		H228.944z"/>
	<path style="fill:#ECF0F0;" d="M280,344c-4.418,0-8-3.582-8-8v-48c0-4.418,3.582-8,8-8s8,3.582,8,8v48
		C288,340.418,284.418,344,280,344z"/>
	<path style="fill:#ECF0F0;" d="M336,344c-2.048,0-4.095-0.781-5.657-2.343L312,323.313V336c0,4.418-3.582,8-8,8s-8-3.582-8-8v-48
		c0-4.418,3.582-8,8-8h32c4.418,0,8,3.582,8,8v24c0,4.418-3.582,8-8,8h-4.687l10.344,10.343C346.582,335.269,342.996,344,336,344z
		 M312,304h16v-8h-16V304z"/>
</g>
<g>
</g>
<g>
</g>
<g>
</g>
<g>
</g>
<g>
</g>
<g>
</g>
<g>
</g>
<g>
</g>
<g>
</g>
<g>
</g>
<g>
</g>
<g>
</g>
<g>
</g>
<g>
</g>
<g>
</g>
</svg>
