<svg id="Capa_1" enable-background="new 0 0 512 512" height="512" viewBox="0 0 512 512" width="512" xmlns="http://www.w3.org/2000/svg"><g><path d="m75.718 101.302v400.396c0 5.69 4.612 10.302 10.302 10.302h339.96c5.69 0 10.302-4.612 10.302-10.302v-400.396c0-5.69-4.612-74.302-10.302-74.302h-339.96c-5.689 0-10.302 68.612-10.302 74.302z" fill="#5392f9"/><path d="m421.801 69.923s-14.769 3.44-14.769 9.129v422.646c0 5.69-4.612 10.302-10.302 10.302h29.25c5.69 0 10.302-4.612 10.302-10.302v-400.264c0-5.689-8.792-31.511-14.481-31.511z" fill="#4071f7"/><path d="m256 38.306c70.488 0 134.263 24.439 180.282 63.897v-91.901c0-5.69-4.613-10.302-10.302-10.302h-339.96c-5.69 0-10.302 4.612-10.302 10.302v91.901c46.019-39.458 109.794-63.897 180.282-63.897z" fill="#f1cd88"/><path d="m425.98 0h-29.25c5.689 0 10.302 4.612 10.302 10.302v70.375c10.382 6.546 20.167 13.738 29.25 21.526v-91.901c0-5.69-4.613-10.302-10.302-10.302z" fill="#ebb34c"/><path d="m339.183 430.272h-166.366c-4.267 0-7.726-3.459-7.726-7.726s3.459-7.726 7.726-7.726h166.366c4.268 0 7.726 3.459 7.726 7.726s-3.458 7.726-7.726 7.726z" fill="#ddebfd"/><path d="m310.895 470.106h-22.112c-4.268 0-7.726-3.459-7.726-7.726s3.459-7.726 7.726-7.726h22.112c4.268 0 7.726 3.459 7.726 7.726.001 4.267-3.458 7.726-7.726 7.726z" fill="#20396b"/><path d="m252.909 470.106h-51.805c-4.267 0-7.726-3.459-7.726-7.726s3.459-7.726 7.726-7.726h51.805c4.268 0 7.726 3.459 7.726 7.726.001 4.267-3.458 7.726-7.726 7.726z" fill="#20396b"/><path d="m364.991 347.241c-67.26 39.569-150.722 39.569-217.981 0-1.419-.835-1.353-2.915.133-3.622 6.195-2.946 12.528-6.228 18.972-9.845 1.035-.581 1.347-1.918.709-2.919-6.151-9.653-9.313-19.651-14.491-29.993-.908-1.814 1.094-3.685 2.855-2.678 65.121 37.216 136.501 37.216 201.623 0 1.761-1.007 3.764.865 2.855 2.678-5.178 10.342-8.34 20.34-14.491 29.993-.638 1.001-.326 2.338.709 2.919 6.445 3.617 12.777 6.899 18.972 9.845 1.488.707 1.553 2.787.135 3.622z" fill="#f1cd88"/><path d="m162.353 247.965 53.3-122.1c.987-2.261 3.941-2.82 5.685-1.075l73.518 73.518c1.745 1.745 1.186 4.698-1.075 5.685l-122.1 53.3c-5.904 2.578-11.906-3.424-9.328-9.328z" fill="#aa3584"/><path d="m203.111 154.596-16.248 37.221c9.8 15.308 15.805 33.044 17.59 51.171l33.226-14.504c-2.169-27.669-14.621-54.595-34.568-73.888z" fill="#e69824"/><path d="m350.262 171.033c-2.001 0-4.001-.773-5.513-2.313-9.371-9.545-25.129-12.728-37.47-7.565-3.936 1.645-8.463-.209-10.109-4.147-1.647-3.937.21-8.463 4.147-10.109 18.225-7.622 40.621-3.1 54.458 10.996 2.99 3.045 2.945 7.937-.101 10.927-1.504 1.474-3.459 2.211-5.412 2.211z" fill="#fff4ff"/><path d="m265.618 123.077c-.994 0-2.004-.193-2.978-.6-3.937-1.647-5.794-6.173-4.147-10.11 5.161-12.341 1.979-28.099-7.566-37.469-3.045-2.989-3.09-7.881-.101-10.927 2.989-3.044 7.882-3.09 10.926-.101 14.097 13.839 18.619 36.233 10.996 54.459-1.238 2.963-4.108 4.748-7.13 4.748z" fill="#ddebfd"/><path d="m306.054 121.318c-1.978 0-3.955-.754-5.464-2.263-3.017-3.017-3.017-7.909 0-10.927l28.14-28.139c3.019-3.018 7.91-3.018 10.928 0 3.017 3.017 3.017 7.909 0 10.927l-28.14 28.139c-1.509 1.508-3.487 2.263-5.464 2.263z" fill="#fff4ff"/></g></svg>