<svg height="511pt" viewBox="-80 1 511 511.99997" width="511pt" xmlns="http://www.w3.org/2000/svg"><path d="m162.183594 26.949219 98.808594 206.59375 8.980468 17.398437c20.441406 23.234375 49.898438 36.53125 80.84375 36.496094v-152.699219c0-59.53125-48.257812-107.789062-107.789062-107.789062zm0 0" fill="#3e3531"/><path d="m323.867188 512v-107.789062c0-56.472657-43.582032-103.371094-99.902344-107.503907h-123.578125c-56.316407 4.140625-99.886719 51.039063-99.886719 107.503907v107.789062zm0 0" fill="#29abe2"/><path d="m63.378906 494.035156v17.964844h-62.878906v-71.859375h45.628906c-.472656 2.96875-.710937 5.972656-.71875 8.980469.351563 16.65625 6.734375 32.613281 17.96875 44.914062zm0 0" fill="#f2c09a"/><path d="m72.359375 512h-17.964844v-14.5625c-23.953125-27.753906-23.953125-68.875 0-96.632812v-14.558594h17.964844v17.964844c0 2.382812-.945313 4.667968-2.632813 6.351562-9.511718 10.632812-14.941406 24.296875-15.332031 38.558594.304688 14.28125 5.75 27.972656 15.332031 38.5625 1.6875 1.683594 2.632813 3.96875 2.632813 6.351562zm0 0" fill="#2498c9"/><path d="m260.992188 494.035156v17.964844h62.875v-71.859375h-45.628907c.472657 2.96875.710938 5.972656.71875 8.980469-.347656 16.65625-6.734375 32.613281-17.964843 44.914062zm0 0" fill="#f2c09a"/><path d="m252.007812 512h17.964844v-14.5625c23.957032-27.753906 23.957032-68.875 0-96.632812v-14.558594h-17.964844v17.964844c0 2.382812.949219 4.667968 2.632813 6.351562 9.511719 10.632812 14.945313 24.296875 15.332031 38.558594-.304687 14.28125-5.746094 27.972656-15.332031 38.5625-1.683594 1.683594-2.632813 3.96875-2.632813 6.351562zm0 0" fill="#2498c9"/><path d="m162.183594 0c64.492187 0 116.773437 52.28125 116.773437 116.773438v80.839843c0 64.492188-52.28125 116.773438-116.773437 116.773438-64.492188 0-116.769532-52.28125-116.769532-116.773438v-80.839843c0-64.492188 52.277344-116.773438 116.769532-116.773438zm0 0" fill="#f2c09a"/><path d="m162.183594 0c-64.492188 0-116.769532 52.28125-116.769532 116.773438v35.929687h17.964844c29.761719 0 53.894532-24.132813 53.894532-53.894531 0 29.761718 24.128906 53.894531 53.894531 53.894531h8.980469v-53.894531c0 29.761718 24.128906 53.894531 53.894531 53.894531h44.914062v-35.929687c0-64.492188-52.28125-116.773438-116.773437-116.773438zm0 0" fill="#534741"/><path d="m278.957031 143.71875h8.980469c14.882812 0 26.949219 12.066406 26.949219 26.949219 0 14.882812-12.066407 26.945312-26.949219 26.945312h-8.980469zm0 0" fill="#cc9c72"/><path d="m45.414062 197.613281h-8.984374c-14.882813 0-26.945313-12.0625-26.945313-26.945312 0-14.882813 12.0625-26.949219 26.945313-26.949219h8.984374zm0 0" fill="#cc9c72"/><g fill="#a67c52"><path d="m162.183594 215.578125h-8.980469c-4.960937 0-8.984375-4.019531-8.984375-8.980469 0-4.960937 4.023438-8.984375 8.984375-8.984375h8.980469v-17.964843c0-4.960938 4.023437-8.980469 8.984375-8.980469 4.960937 0 8.980469 4.019531 8.980469 8.980469v17.964843c0 9.921875-8.042969 17.964844-17.964844 17.964844zm0 0"/><path d="m162.183594 287.4375c-12.175782.523438-24.089844-3.628906-33.296875-11.613281-3.445313-3.566407-3.347657-9.253907.21875-12.699219 3.480469-3.363281 9-3.363281 12.480469 0 5.894531 4.492188 13.195312 6.742188 20.597656 6.347656 7.4375.394532 14.769531-1.894531 20.660156-6.449218 3.585938-3.371094 9.207031-3.253907 12.648438.261718 3.449218 3.488282 3.429687 9.109375-.046876 12.574219-9.203124 7.960937-21.101562 12.105469-33.261718 11.578125zm0 0"/><path d="m126.253906 179.648438c0 4.960937-4.019531 8.984374-8.980468 8.984374-4.960938 0-8.984376-4.023437-8.984376-8.984374 0-4.960938 4.023438-8.980469 8.984376-8.980469 4.960937 0 8.980468 4.019531 8.980468 8.980469zm0 0"/><path d="m216.078125 179.648438c0 4.960937-4.019531 8.984374-8.980469 8.984374-4.960937 0-8.984375-4.023437-8.984375-8.984374 0-4.960938 4.023438-8.980469 8.984375-8.980469 4.960938 0 8.980469 4.019531 8.980469 8.980469zm0 0"/></g><path d="m162.183594 377.261719c43.296875-.019531 78.875-34.167969 80.671875-77.425781-6.183594-1.601563-12.496094-2.648438-18.863281-3.128907h-123.605469c-6.371094.480469-12.683594 1.523438-18.863281 3.128907 1.792968 43.253906 37.367187 77.402343 80.660156 77.425781zm0 0" fill="#f2c09a"/><path d="m82.472656 309.734375c44.789063 42.132813 114.632813 42.132813 159.421875 0 .53125-3.273437.859375-6.570313.980469-9.882813-6.183594-1.605468-12.496094-2.65625-18.863281-3.132812h-.28125c-37.609375 23.570312-85.382813 23.570312-122.996094 0h-.347656c-6.371094.476562-12.683594 1.523438-18.863281 3.132812.109374 3.3125.429687 6.609376.949218 9.882813zm0 0" fill="#cc9c72"/></svg>