<?xml version="1.0" encoding="iso-8859-1"?>
<!-- Generator: Adobe Illustrator 19.0.0, SVG Export Plug-In . SVG Version: 6.00 Build 0)  -->
<svg version="1.1" id="Capa_1" xmlns="http://www.w3.org/2000/svg" xmlns:xlink="http://www.w3.org/1999/xlink" x="0px" y="0px"
	 viewBox="0 0 512 512" style="enable-background:new 0 0 512 512;" xml:space="preserve">
<path style="fill:#ECF0F1;" d="M483.31,512H28.69C12.844,512,0,499.156,0,483.31V105.931h512V483.31
	C512,499.156,499.156,512,483.31,512z"/>
<path style="fill:#687492;" d="M512,105.931H0V28.69C0,12.844,12.844,0,28.69,0H483.31C499.156,0,512,12.844,512,28.69V105.931z"/>
<rect x="35.31" y="35.31" style="fill:#E64C3C;" width="35.31" height="35.31"/>
<rect x="105.931" y="35.31" style="fill:#F0C419;" width="35.31" height="35.31"/>
<rect x="176.552" y="35.31" style="fill:#24AE5F;" width="35.31" height="35.31"/>
<rect x="247.172" y="105.931" style="fill:#BDC3C7;" width="17.655" height="406.069"/>
<rect x="291.31" y="150.069" style="fill:#E64C3C;" width="185.379" height="141.241"/>
<rect x="291.31" y="326.621" style="fill:#8697CB;" width="185.379" height="141.241"/>
<g>
	<path style="fill:#FFFFFF;" d="M447.62,391l-26.483-26.483c-3.443-3.452-9.039-3.452-12.482,0l-29.069,29.069l-11.414-11.414
		c-3.443-3.452-9.039-3.452-12.482,0l-35.31,35.31c-3.452,3.452-3.452,9.031,0,12.482c1.721,1.721,3.981,2.586,6.241,2.586
		c2.26,0,4.52-0.865,6.241-2.586l29.069-29.069L391,429.965c1.721,1.721,3.981,2.586,6.241,2.586c2.26,0,4.52-0.865,6.241-2.586
		c3.452-3.452,3.452-9.031,0-12.482l-11.414-11.414l22.828-22.828l20.242,20.242c1.721,1.721,3.981,2.586,6.241,2.586
		s4.52-0.865,6.241-2.586C451.072,400.031,451.072,394.452,447.62,391z"/>
	<polygon style="fill:#FFFFFF;" points="361.931,185.379 361.931,256 423.724,220.69 	"/>
</g>
<g>
	<path style="fill:#0494E5;" d="M194.207,291.31H61.793v-29.846c0-12.765,10.355-23.119,23.119-23.119h86.175
		c12.765,0,23.119,10.355,23.119,23.119V291.31z"/>
	<circle style="fill:#0494E5;" cx="128" cy="172.138" r="30.897"/>
</g>
<path style="fill:#25B899;" d="M167.724,476.69H97.103c-9.754,0-17.655-7.901-17.655-17.655l0,0c0-9.754,7.901-17.655,17.655-17.655
	h70.621c9.754,0,17.655,7.901,17.655,17.655l0,0C185.379,468.789,177.479,476.69,167.724,476.69z"/>
<g>
	<path style="fill:#BDC3C7;" d="M185.379,370.759H79.448c-4.873,0-8.828-3.946-8.828-8.828c0-4.882,3.955-8.828,8.828-8.828h105.931
		c4.873,0,8.828,3.946,8.828,8.828C194.207,366.813,190.252,370.759,185.379,370.759z"/>
	<path style="fill:#BDC3C7;" d="M167.724,406.069H97.103c-4.873,0-8.828-3.946-8.828-8.828c0-4.882,3.955-8.828,8.828-8.828h70.621
		c4.873,0,8.828,3.946,8.828,8.828C176.552,402.123,172.597,406.069,167.724,406.069z"/>
	<path style="fill:#BDC3C7;" d="M167.724,335.448H97.103c-4.873,0-8.828-3.946-8.828-8.828c0-4.882,3.955-8.828,8.828-8.828h70.621
		c4.873,0,8.828,3.946,8.828,8.828C176.552,331.502,172.597,335.448,167.724,335.448z"/>
</g>
<g>
</g>
<g>
</g>
<g>
</g>
<g>
</g>
<g>
</g>
<g>
</g>
<g>
</g>
<g>
</g>
<g>
</g>
<g>
</g>
<g>
</g>
<g>
</g>
<g>
</g>
<g>
</g>
<g>
</g>
</svg>
