<?xml version="1.0" encoding="iso-8859-1"?>
<!-- Generator: Adobe Illustrator 19.0.0, SVG Export Plug-In . SVG Version: 6.00 Build 0)  -->
<svg version="1.1" id="Capa_1" xmlns="http://www.w3.org/2000/svg" xmlns:xlink="http://www.w3.org/1999/xlink" x="0px" y="0px"
	 viewBox="0 0 512 512" style="enable-background:new 0 0 512 512;" xml:space="preserve">
<path style="fill:#ECF0F1;" d="M483.31,512H28.69C12.844,512,0,499.156,0,483.31V105.931h512V483.31
	C512,499.156,499.156,512,483.31,512z"/>
<path style="fill:#8697CB;" d="M476.69,485.517H300.138c-4.873,0-8.828-3.946-8.828-8.828V282.483c0-4.882,3.955-8.828,8.828-8.828
	H476.69c4.873,0,8.828,3.946,8.828,8.828V476.69C485.517,481.571,481.562,485.517,476.69,485.517z"/>
<path style="fill:#687492;" d="M512,105.931H0V28.69C0,12.844,12.844,0,28.69,0H483.31C499.156,0,512,12.844,512,28.69V105.931z"/>
<rect x="35.31" y="35.31" style="fill:#E64C3C;" width="35.31" height="35.31"/>
<rect x="105.931" y="35.31" style="fill:#F0C419;" width="35.31" height="35.31"/>
<rect x="176.552" y="35.31" style="fill:#24AE5F;" width="35.31" height="35.31"/>
<path style="fill:#E64C3C;" d="M167.724,476.69H97.103c-14.601,0-26.483-11.882-26.483-26.483c0-14.601,11.882-26.483,26.483-26.483
	h70.621c14.601,0,26.483,11.882,26.483,26.483C194.207,464.808,182.325,476.69,167.724,476.69z"/>
<g>
	<rect x="247.172" y="105.931" style="fill:#BDC3C7;" width="17.655" height="406.069"/>
	<path style="fill:#BDC3C7;" d="M185.379,370.759H79.448c-4.873,0-8.828-3.946-8.828-8.828c0-4.882,3.955-8.828,8.828-8.828h105.931
		c4.873,0,8.828,3.946,8.828,8.828C194.207,366.813,190.252,370.759,185.379,370.759z"/>
	<path style="fill:#BDC3C7;" d="M167.724,406.069H97.103c-4.873,0-8.828-3.946-8.828-8.828c0-4.882,3.955-8.828,8.828-8.828h70.621
		c4.873,0,8.828,3.946,8.828,8.828C176.552,402.123,172.597,406.069,167.724,406.069z"/>
	<path style="fill:#BDC3C7;" d="M167.724,335.448H97.103c-4.873,0-8.828-3.946-8.828-8.828c0-4.882,3.955-8.828,8.828-8.828h70.621
		c4.873,0,8.828,3.946,8.828,8.828C176.552,331.502,172.597,335.448,167.724,335.448z"/>
</g>
<g>
	<path style="fill:#4482C3;" d="M132.414,211.862c-19.474,0-35.31-15.837-35.31-35.31s15.837-35.31,35.31-35.31
		c19.474,0,35.31,15.837,35.31,35.31S151.887,211.862,132.414,211.862z"/>
	<path style="fill:#4482C3;" d="M176.552,291.31H88.276c-4.873,0-8.828-3.946-8.828-8.828v-14.495
		c0-21.213,17.258-38.471,38.471-38.471H146.9c21.213,0,38.479,17.258,38.479,38.471v14.495
		C185.379,287.364,181.425,291.31,176.552,291.31z"/>
</g>
<path style="fill:#F0C419;" d="M388.414,450.207c-2.26,0-4.52-0.865-6.241-2.586l-35.31-35.31
	c-11.723-11.714-18.529-26.721-19.165-42.258c-0.662-16.084,5.385-31.347,17.02-42.982c11.679-11.67,27.189-18.105,43.697-18.105
	s32.018,6.435,43.697,18.105c11.635,11.635,17.682,26.898,17.02,42.982c-0.636,15.537-7.442,30.543-19.165,42.258l-35.31,35.31
	C392.934,449.342,390.674,450.207,388.414,450.207z"/>
<path style="fill:#FFFFFF;" d="M397.365,397.241h-17.902c-9.666,0-17.532-7.865-17.532-17.532v-17.893
	c0-9.675,7.865-17.54,17.532-17.54h17.902c9.666,0,17.532,7.865,17.532,17.532v17.894
	C414.897,389.376,407.031,397.241,397.365,397.241z M397.365,379.586v8.828V379.586L397.365,379.586L397.365,379.586z"/>
<path style="fill:#E64C3C;" d="M414.897,185.379H300.138c-4.873,0-8.828-3.946-8.828-8.828s3.955-8.828,8.828-8.828h114.759
	c4.873,0,8.828,3.946,8.828,8.828S419.769,185.379,414.897,185.379z"/>
<path style="fill:#4482C3;" d="M476.69,185.379h-26.483c-4.873,0-8.828-3.946-8.828-8.828s3.955-8.828,8.828-8.828h26.483
	c4.873,0,8.828,3.946,8.828,8.828S481.562,185.379,476.69,185.379z"/>
<path style="fill:#FB7B76;" d="M476.69,220.69H361.931c-4.873,0-8.828-3.946-8.828-8.828c0-4.882,3.955-8.828,8.828-8.828H476.69
	c4.873,0,8.828,3.946,8.828,8.828C485.517,216.744,481.562,220.69,476.69,220.69z"/>
<path style="fill:#8697CB;" d="M326.621,220.69h-26.483c-4.873,0-8.828-3.946-8.828-8.828c0-4.882,3.955-8.828,8.828-8.828h26.483
	c4.873,0,8.828,3.946,8.828,8.828C335.448,216.744,331.493,220.69,326.621,220.69z"/>
<path style="fill:#24AE5F;" d="M476.69,150.069H361.931c-4.873,0-8.828-3.946-8.828-8.828s3.955-8.828,8.828-8.828H476.69
	c4.873,0,8.828,3.946,8.828,8.828C485.517,146.123,481.562,150.069,476.69,150.069z"/>
<path style="fill:#F0C419;" d="M326.621,150.069h-26.483c-4.873,0-8.828-3.946-8.828-8.828s3.955-8.828,8.828-8.828h26.483
	c4.873,0,8.828,3.946,8.828,8.828C335.448,146.123,331.493,150.069,326.621,150.069z"/>
<path style="fill:#90BAE1;" d="M414.897,256H300.138c-4.873,0-8.828-3.946-8.828-8.828s3.955-8.828,8.828-8.828h114.759
	c4.873,0,8.828,3.946,8.828,8.828S419.769,256,414.897,256z"/>
<path style="fill:#F29C1F;" d="M476.69,256h-26.483c-4.873,0-8.828-3.946-8.828-8.828s3.955-8.828,8.828-8.828h26.483
	c4.873,0,8.828,3.946,8.828,8.828S481.562,256,476.69,256z"/>
<g>
</g>
<g>
</g>
<g>
</g>
<g>
</g>
<g>
</g>
<g>
</g>
<g>
</g>
<g>
</g>
<g>
</g>
<g>
</g>
<g>
</g>
<g>
</g>
<g>
</g>
<g>
</g>
<g>
</g>
</svg>
