<?xml version="1.0" encoding="iso-8859-1"?>
<!-- Generator: Adobe Illustrator 19.0.0, SVG Export Plug-In . SVG Version: 6.00 Build 0)  -->
<svg version="1.1" id="Capa_1" xmlns="http://www.w3.org/2000/svg" xmlns:xlink="http://www.w3.org/1999/xlink" x="0px" y="0px"
	 viewBox="0 0 512 512" style="enable-background:new 0 0 512 512;" xml:space="preserve">
<path style="fill:#ECF0F1;" d="M483.31,512H28.69C12.844,512,0,499.156,0,483.31V105.931h512V483.31
	C512,499.156,499.156,512,483.31,512z"/>
<path style="fill:#687492;" d="M512,105.931H0V28.69C0,12.844,12.844,0,28.69,0H483.31C499.156,0,512,12.844,512,28.69V105.931z"/>
<rect x="35.31" y="35.31" style="fill:#E64C3C;" width="35.31" height="35.31"/>
<rect x="105.931" y="35.31" style="fill:#F0C419;" width="35.31" height="35.31"/>
<rect x="176.552" y="35.31" style="fill:#24AE5F;" width="35.31" height="35.31"/>
<g>
	<rect x="158.897" y="150.069" style="fill:#E64C3C;" width="194.207" height="158.897"/>
	<rect x="397.241" y="150.069" style="fill:#4482C3;" width="114.759" height="158.897"/>
</g>
<path style="fill:#F0C419;" d="M324.034,232.104l-35.31-35.31c-3.443-3.452-9.039-3.452-12.482,0l-29.069,29.069l-11.414-11.414
	c-3.443-3.452-9.039-3.452-12.482,0l-35.31,35.31c-3.452,3.452-3.452,9.031,0,12.482c1.721,1.721,3.981,2.586,6.241,2.586
	c2.26,0,4.52-0.865,6.241-2.586l29.069-29.069l29.069,29.069c1.721,1.721,3.981,2.586,6.241,2.586c2.26,0,4.52-0.865,6.241-2.586
	c3.452-3.452,3.452-9.031,0-12.482l-11.414-11.414l22.828-22.828l29.069,29.069c1.721,1.721,3.981,2.586,6.241,2.586
	c2.26,0,4.52-0.865,6.241-2.586C327.486,241.134,327.486,235.555,324.034,232.104z"/>
<path style="fill:#24AE5F;" d="M317.793,476.69H194.207c-14.601,0-26.483-11.882-26.483-26.483
	c0-14.601,11.882-26.483,26.483-26.483h123.586c14.601,0,26.483,11.882,26.483,26.483
	C344.276,464.808,332.394,476.69,317.793,476.69z"/>
<g>
	<path style="fill:#BCC2C6;" d="M344.276,361.931H167.724c-4.873,0-8.828-3.955-8.828-8.828c0-4.873,3.955-8.828,8.828-8.828
		h176.552c4.873,0,8.828,3.955,8.828,8.828C353.103,357.976,349.149,361.931,344.276,361.931z"/>
	<path style="fill:#BCC2C6;" d="M388.414,397.241H123.586c-4.873,0-8.828-3.955-8.828-8.828s3.955-8.828,8.828-8.828h264.828
		c4.873,0,8.828,3.955,8.828,8.828S393.287,397.241,388.414,397.241z"/>
</g>
<path style="fill:#FFFFFF;" d="M441.379,264.828c-2.26,0-4.52-0.865-6.241-2.586c-3.452-3.452-3.452-9.031,0-12.482l20.242-20.242
	l-20.242-20.242c-3.452-3.452-3.452-9.031,0-12.482c3.443-3.452,9.039-3.452,12.482,0l26.483,26.483
	c3.452,3.452,3.452,9.031,0,12.482l-26.483,26.483C445.899,263.962,443.639,264.828,441.379,264.828z"/>
<rect y="150.069" style="fill:#4482C3;" width="114.759" height="158.897"/>
<path style="fill:#FFFFFF;" d="M70.621,264.828c-2.26,0-4.52-0.865-6.241-2.586l-26.483-26.483c-3.452-3.452-3.452-9.031,0-12.482
	l26.483-26.483c3.443-3.452,9.039-3.452,12.482,0c3.452,3.452,3.452,9.031,0,12.482L56.62,229.517l20.242,20.242
	c3.452,3.452,3.452,9.031,0,12.482C75.14,263.962,72.881,264.828,70.621,264.828z"/>
<g>
</g>
<g>
</g>
<g>
</g>
<g>
</g>
<g>
</g>
<g>
</g>
<g>
</g>
<g>
</g>
<g>
</g>
<g>
</g>
<g>
</g>
<g>
</g>
<g>
</g>
<g>
</g>
<g>
</g>
</svg>
